
<svg  id="Capa_1" xmlns="http://www.w3.org/2000/svg" xmlns:xlink="http://www.w3.org/1999/xlink" x="0px" y="0px"
	 viewBox="0 0 2317 1943" style="enable-background:new 0 0 2317 1943;" xml:space="preserve">
<path style="fill:#CE913A;" d="M2143.312,1365.765v-94.995c0,110.089-173.25,199.334-386.966,199.334
	c-213.715,0-386.967-89.245-386.967-199.334c0-25.736,9.573-50.307,26.813-72.891c-58.834,18.604-128.044,29.348-202.141,29.348
	c-93.698,0-179.61-17.16-246.563-45.704v-20.427c66.953,28.545,152.865,45.704,246.563,45.704
	c86.944,0,167.158-14.792,231.768-39.728c25.744-21.727,59.325-40.72,98.733-55.928c32.709-27.607,52.689-59.631,55.9-93.93
	c0.207-2.215,0.454-4.423,0.52-6.656c0.03-1.029,0.045-2.06,0.045-3.092v-94.995c0,110.089-173.25,199.334-386.966,199.334
	c-93.698,0-179.61-17.16-246.563-45.705v-19.558c66.953,28.545,152.865,45.704,246.563,45.704
	c207.733,0,377.118-84.334,386.445-190.155c0.179-2.026,0.416-4.045,0.476-6.088c0.03-1.029,0.045-2.059,0.045-3.092v-94.995
	c0,110.089-173.25,199.334-386.966,199.334c-213.715,0-386.966-89.245-386.966-199.334v88.914
	c85.758,36.563,140.403,91.807,140.403,153.63c0,110.089-173.251,199.334-386.966,199.334s-386.966-89.245-386.966-199.334v94.996
	c0,3.28,0.176,6.538,0.48,9.779c9.901,105.546,179.137,189.556,386.486,189.556c207.733,0,377.117-84.334,386.445-190.155
	c0.343,3.437,0.522,6.897,0.522,10.378c0,110.089-173.251,199.334-386.966,199.334s-386.966-89.245-386.966-199.334v94.995
	c0,3.426,0.171,6.831,0.501,10.215c10.323,105.342,179.4,189.12,386.465,189.12c207.361,0,376.518-84.031,386.401-189.586
	c0.362,3.537,0.566,7.096,0.566,10.679c0,110.09-173.251,199.334-386.966,199.334s-386.966-89.245-386.966-199.334v94.995
	c0,4.587,0.41,9.121,1.002,13.632c13.615,103.723,181.153,185.703,385.965,185.703c204.632,0,372.134-81.824,386.006-185.419
	c0.568,4.417,0.96,8.858,0.96,13.348c0,110.089-173.251,199.334-386.966,199.334s-386.966-89.245-386.966-199.334v94.995
	c0,110.09,173.251,199.335,386.966,199.335c211.711,0,383.713-87.578,386.921-196.243c0.03-1.029,0.045-2.059,0.045-3.092v-88.914
	c66.953,28.545,152.865,45.705,246.563,45.705c63.134,0,122.681-7.837,175.328-21.65v65.192
	c0,110.09,173.252,199.334,386.967,199.334c211.711,0,383.713-87.579,386.921-196.242c0.031-1.029,0.045-2.06,0.045-3.092v-94.996
	c0,110.09-173.25,199.335-386.966,199.335c-213.715,0-386.967-89.245-386.967-199.335c0-4.587,0.41-9.122,1.001-13.632
	c13.615,103.724,181.155,185.703,385.966,185.703c204.632,0,372.134-81.824,386.006-185.419c0.48-3.584,0.808-7.189,0.915-10.823
	C2143.298,1367.828,2143.312,1366.797,2143.312,1365.765z"/>
<path style="fill:#FBBF5D;" d="M947.488,1276.517v27.264c66.953,28.545,152.865,45.705,246.563,45.705
	c63.134,0,122.679-7.839,175.328-21.652v-27.263c-52.647,13.813-112.194,21.65-175.328,21.65
	C1100.353,1322.222,1014.44,1305.062,947.488,1276.517z"/>
<path style="fill:#CE913A;" d="M1581.017,1093.087v-65.195c0,25.737-9.573,50.308-26.813,72.891
	C1562.908,1098.031,1571.876,1095.484,1581.017,1093.087z"/>
<path style="fill:#FBBF5D;" d="M1756.346,1071.435c-63.135,0-122.68,7.838-175.329,21.652c-9.141,2.398-18.109,4.944-26.813,7.697
	c17.239-22.584,26.813-47.154,26.813-72.891c0-3.583-0.204-7.142-0.566-10.679c-3.21,34.299-23.191,66.323-55.9,93.93
	c-39.408,15.208-72.989,34.201-98.733,55.928c-64.61,24.936-144.824,39.728-231.768,39.728c-93.698,0-179.61-17.16-246.563-45.704
	v20.427c66.953,28.545,152.865,45.704,246.563,45.704c74.097,0,143.307-10.744,202.141-29.348
	c-17.239,22.584-26.813,47.154-26.813,72.891c0,110.089,173.252,199.334,386.967,199.334c213.716,0,386.966-89.245,386.966-199.334
	C2143.312,1160.679,1970.062,1071.435,1756.346,1071.435z"/>
<path style="fill:#FBBF5D;" d="M1194.051,1092.245c-93.698,0-179.61-17.16-246.563-45.704v19.558
	c66.953,28.545,152.865,45.705,246.563,45.705c213.716,0,386.966-89.245,386.966-199.334c0-3.481-0.179-6.941-0.521-10.379
	C1571.168,1007.911,1401.784,1092.245,1194.051,1092.245z"/>
<path style="fill:#FBBF5D;" d="M1194.051,997.25c213.716,0,386.966-89.245,386.966-199.334c0-3.481-0.179-6.941-0.521-10.379
	c-9.327,105.821-178.712,190.155-386.445,190.155c-207.349,0-376.585-84.01-386.486-189.556c-0.304,3.241-0.48,6.499-0.48,9.779
	C807.085,908.005,980.336,997.25,1194.051,997.25z"/>
<path style="fill:#CE913A;" d="M1194.051,977.692c207.733,0,377.118-84.334,386.445-190.155c0.179-2.026,0.416-4.046,0.476-6.088
	c0.03-1.029,0.045-2.059,0.045-3.092v-94.995c0,110.09-173.25,199.335-386.966,199.335c-213.715,0-386.966-89.245-386.966-199.335
	v94.995c0,3.279,0.176,6.538,0.48,9.779C817.465,893.682,986.702,977.692,1194.051,977.692z"/>
<path style="fill:#FBBF5D;" d="M1194.051,882.697c213.716,0,386.966-89.245,386.966-199.335c0-3.481-0.179-6.94-0.521-10.378
	c-9.327,105.82-178.712,190.155-386.445,190.155c-207.349,0-376.585-84.009-386.486-189.555c-0.304,3.241-0.48,6.499-0.48,9.779
	C807.085,793.451,980.336,882.697,1194.051,882.697z"/>
<path style="fill:#CE913A;" d="M1194.051,863.138c207.733,0,377.118-84.334,386.445-190.155c0.179-2.026,0.416-4.046,0.476-6.087
	c0.03-1.029,0.045-2.06,0.045-3.093v-94.995c0,110.09-173.25,199.336-386.966,199.336c-213.715,0-386.966-89.245-386.966-199.336
	v94.995c0,3.28,0.176,6.538,0.48,9.779C817.465,779.129,986.702,863.138,1194.051,863.138z"/>
<path style="fill:#FBBF5D;" d="M1194.051,768.144c213.716,0,386.966-89.245,386.966-199.336c0-3.481-0.179-6.94-0.521-10.378
	c-9.327,105.82-178.712,190.155-386.445,190.155c-207.349,0-376.585-84.01-386.486-189.556c-0.304,3.241-0.48,6.499-0.48,9.779
	C807.085,678.899,980.336,768.144,1194.051,768.144z"/>
<path style="fill:#CE913A;" d="M1194.051,748.586c207.733,0,377.118-84.334,386.445-190.155c0.179-2.026,0.416-4.046,0.476-6.088
	c0.03-1.029,0.045-2.06,0.045-3.092v-94.996c0,110.09-173.25,199.334-386.966,199.334c-213.715,0-386.966-89.245-386.966-199.334
	v94.996c0,3.28,0.176,6.538,0.48,9.779C817.465,664.575,986.702,748.586,1194.051,748.586z"/>
<ellipse style="fill:#FBBF5D;" cx="1194.051" cy="454.255" rx="386.966" ry="199.334"/>
<ellipse style="fill:#D1892A;" cx="1194.051" cy="454.255" rx="325.499" ry="167.671"/>
<ellipse style="fill:#EAA33C;" cx="1194.051" cy="454.255" rx="283.589" ry="146.083"/>
<path style="fill:#FBBF5D;" d="M1107.414,540.565c12.809,3.354,28.661,5.765,45.689,7.288v21.569h81.906V548.19
	c15.63-1.318,29.9-3.451,41.18-6.473c29.027-7.775,47.959-26.397,49.41-48.602c1.424-21.798-14.474-40.602-41.494-49.073
	c-20.08-6.297-49.288-11.897-80.206-17.826c-28.835-5.528-61.514-11.795-73.82-16.646c-3.311-1.305-4.973-4.471-4.34-8.263
	c1.056-6.35,8.862-14.573,23.911-18.626c17.724-4.778,48.384-4.936,71.307-0.374c8.189,1.629,22.62,5.339,27.273,11.881
	l58.831-11.113c-9.754-13.7-32.313-24.666-63.522-30.877c-8.991-1.79-18.476-3.113-28.144-4.023v-21.143h-81.906v24.126
	c-4.493,0.853-8.808,1.823-12.885,2.922c-32.216,8.681-54.171,25.719-57.294,44.466c-2.519,15.115,7.939,28.476,28.688,36.656
	c19.747,7.785,53.892,14.332,90.041,21.263c26.802,5.139,54.514,10.453,69.485,15.148c5.052,1.584,12.183,9.168,11.448,20.417
	c-0.726,11.138-8.627,19.157-15.695,21.05c-22.026,5.9-82.301,6.351-111.474-1.289c-9.016-2.361-10.75-10.978-10.722-13.156
	l-62.639-0.776C1061.8,509.179,1070.546,530.911,1107.414,540.565z"/>
<path style="fill:#FBBF5D;" d="M560.522,1592.03c213.715,0,386.966-89.245,386.966-199.334c0-4.49-0.392-8.931-0.96-13.348
	c-13.872,103.594-181.374,185.419-386.006,185.419c-204.811,0-372.35-81.98-385.965-185.703c-0.592,4.51-1.002,9.045-1.002,13.632
	C173.555,1502.784,346.806,1592.03,560.522,1592.03z"/>
<path style="fill:#FBBF5D;" d="M560.522,1469.771c213.715,0,386.966-89.245,386.966-199.334c0-3.584-0.204-7.142-0.566-10.679
	c-9.883,105.554-179.039,189.586-386.401,189.586c-207.065,0-376.142-83.777-386.465-189.12c-0.33,3.383-0.501,6.787-0.501,10.214
	C173.555,1380.526,346.806,1469.771,560.522,1469.771z"/>
<path style="fill:#FBBF5D;" d="M560.522,1354.347c213.715,0,386.966-89.245,386.966-199.334c0-3.481-0.179-6.941-0.522-10.378
	c-9.328,105.82-178.712,190.155-386.445,190.155c-207.349,0-376.585-84.01-386.486-189.556c-0.304,3.241-0.48,6.5-0.48,9.779
	C173.555,1265.102,346.806,1354.347,560.522,1354.347z"/>
<path style="fill:#FBBF5D;" d="M807.085,886.829c-66.952-28.545-152.865-45.705-246.563-45.705
	c-213.715,0-386.966,89.245-386.966,199.335c0,110.089,173.251,199.334,386.966,199.334s386.966-89.245,386.966-199.334
	C947.488,978.637,892.843,923.392,807.085,886.829z"/>
<ellipse style="fill:#D1892A;" cx="560.522" cy="1040.459" rx="325.498" ry="167.671"/>
<ellipse style="fill:#EAA33C;" cx="560.521" cy="1040.459" rx="283.589" ry="146.083"/>
<path style="fill:#FBBF5D;" d="M473.885,1126.769c12.808,3.355,28.661,5.766,45.689,7.287v21.57h81.906v-21.231
	c15.63-1.319,29.9-3.452,41.18-6.473c29.028-7.775,47.959-26.397,49.41-48.602c1.425-21.798-14.475-40.602-41.494-49.073
	c-20.08-6.297-49.288-11.897-80.206-17.826c-28.833-5.529-61.514-11.795-73.819-16.647c-3.311-1.304-4.974-4.47-4.341-8.262
	c1.058-6.35,8.862-14.573,23.912-18.627c17.725-4.778,48.384-4.936,71.307-0.373c8.189,1.629,22.62,5.339,27.274,11.881
	l58.831-11.113c-9.754-13.7-32.312-24.666-63.522-30.876c-8.991-1.79-18.476-3.114-28.143-4.023v-21.144h-81.908v24.126
	c-4.493,0.854-8.808,1.824-12.883,2.922c-32.217,8.682-54.17,25.72-57.294,44.467c-2.518,15.115,7.938,28.476,28.688,36.655
	c19.747,7.785,53.891,14.332,90.04,21.263c26.802,5.14,54.514,10.453,69.485,15.149c5.052,1.583,12.183,9.168,11.45,20.417
	c-0.728,11.137-8.628,19.157-15.696,21.05c-22.024,5.9-82.299,6.351-111.475-1.289c-9.014-2.361-10.749-10.978-10.722-13.158
	l-62.637-0.775C428.271,1095.383,437.017,1117.115,473.885,1126.769z"/>
<path style="fill:#FBBF5D;" d="M1756.346,1565.099c-204.81,0-372.351-81.979-385.966-185.703c-0.592,4.51-1.001,9.045-1.001,13.632
	c0,110.09,173.252,199.335,386.967,199.335c213.716,0,386.966-89.245,386.966-199.335c0-4.491-0.392-8.932-0.96-13.348
	C2128.48,1483.275,1960.978,1565.099,1756.346,1565.099z"/>
<ellipse style="fill:#D1892A;" cx="1756.346" cy="1270.769" rx="325.499" ry="167.671"/>
<ellipse style="fill:#EAA33C;" cx="1756.346" cy="1270.769" rx="283.59" ry="146.083"/>
<path style="fill:#FBBF5D;" d="M1669.709,1357.078c12.809,3.354,28.662,5.765,45.688,7.287v21.569h81.908v-21.231
	c15.63-1.319,29.899-3.451,41.18-6.473c29.028-7.776,47.959-26.397,49.411-48.602c1.423-21.798-14.475-40.602-41.494-49.073
	c-20.08-6.297-49.288-11.897-80.207-17.826c-28.834-5.528-61.512-11.795-73.819-16.646c-3.311-1.304-4.973-4.471-4.34-8.263
	c1.057-6.35,8.862-14.572,23.912-18.626c17.724-4.778,48.384-4.936,71.307-0.374c8.189,1.63,22.62,5.339,27.274,11.882
	l58.831-11.113c-9.753-13.7-32.313-24.666-63.522-30.877c-8.991-1.789-18.476-3.113-28.144-4.023v-21.144h-81.906v24.126
	c-4.493,0.854-8.808,1.824-12.885,2.921c-32.216,8.682-54.17,25.72-57.294,44.467c-2.518,15.115,7.938,28.476,28.688,36.656
	c19.748,7.784,53.892,14.332,90.041,21.263c26.801,5.139,54.513,10.453,69.484,15.147c5.052,1.584,12.184,9.168,11.45,20.418
	c-0.728,11.137-8.628,19.157-15.695,21.05c-22.026,5.9-82.301,6.351-111.474-1.289c-9.016-2.36-10.75-10.977-10.722-13.156
	l-62.639-0.776C1624.094,1325.692,1632.842,1347.424,1669.709,1357.078z"/>
</svg>
