<svg xmlns="http://www.w3.org/2000/svg" xmlns:xlink="http://www.w3.org/1999/xlink" style="isolation:isolate;" viewBox="0 0 64 80" x="0px" y="0px"><defs><clipPath id="a"><rect width="64" height="64"/></clipPath></defs><g clip-path="url(#a)"><path d=" M 51.145 5.002 C 50.734 5.021 50.377 5.291 50.245 5.681 C 49.716 7.269 49.271 8.16 48.288 9.142 C 47.9 9.532 47.9 10.162 48.288 10.553 C 49.271 11.535 49.716 12.428 50.245 14.015 C 50.382 14.423 50.764 14.698 51.193 14.698 C 51.623 14.698 52.005 14.423 52.142 14.015 C 52.671 12.428 53.116 11.535 54.099 10.553 C 54.486 10.162 54.486 9.532 54.099 9.142 C 53.116 8.16 52.671 7.269 52.142 5.681 C 51.999 5.258 51.592 4.98 51.145 5.002 Z  M 51.19 7.963 C 51.506 8.609 51.816 9.29 52.282 9.851 C 51.817 10.412 51.506 11.097 51.19 11.742 C 50.876 11.098 50.569 10.411 50.104 9.851 C 50.57 9.291 50.875 8.607 51.19 7.963 Z  M 13.585 13.668 C 13.176 13.69 12.823 13.96 12.692 14.347 C 11.957 16.554 11.297 17.86 9.901 19.256 C 9.514 19.646 9.514 20.276 9.901 20.666 C 11.297 22.061 11.957 23.369 12.692 25.576 C 12.829 25.984 13.211 26.258 13.641 26.258 C 14.07 26.258 14.452 25.984 14.589 25.576 C 15.324 23.369 15.977 22.061 17.372 20.666 C 17.76 20.276 17.76 19.646 17.372 19.256 C 15.977 17.86 15.324 16.554 14.589 14.347 C 14.445 13.921 14.034 13.643 13.585 13.668 L 13.585 13.668 Z  M 37.784 14.642 C 30.865 14.642 25.235 20.272 25.235 27.191 C 25.235 34.11 30.865 39.742 37.784 39.742 C 44.703 39.742 50.333 34.11 50.333 27.191 C 50.333 20.272 44.703 14.642 37.784 14.642 Z  M 13.638 16.637 C 14.155 17.821 14.7 18.991 15.55 19.965 C 14.702 20.937 14.154 22.104 13.638 23.287 C 13.121 22.105 12.573 20.936 11.726 19.965 C 12.575 18.992 13.12 17.82 13.638 16.637 Z  M 37.784 16.637 C 43.622 16.637 48.333 21.353 48.333 27.191 C 48.333 33.029 43.622 37.742 37.784 37.742 C 31.946 37.742 27.228 33.029 27.228 27.191 C 27.228 21.353 31.946 16.637 37.784 16.637 Z  M 37.802 18.504 C 36.955 18.506 36.117 18.632 35.312 18.873 C 33.164 19.514 31.26 20.975 30.114 23.096 C 29.937 23.411 29.945 23.798 30.134 24.107 C 30.322 24.416 30.663 24.598 31.025 24.585 C 31.387 24.571 31.713 24.363 31.878 24.041 C 33.655 20.751 37.727 19.539 41.017 21.316 C 41.332 21.492 41.718 21.484 42.026 21.296 C 42.334 21.108 42.517 20.769 42.506 20.408 C 42.494 20.047 42.289 19.72 41.97 19.553 C 40.645 18.837 39.213 18.499 37.802 18.504 L 37.802 18.504 Z  M 30.151 27.494 C 29.849 27.487 29.56 27.618 29.365 27.849 C 29.17 28.08 29.09 28.387 29.147 28.683 C 29.551 31.046 30.88 33.031 32.69 34.324 C 32.979 34.561 33.376 34.618 33.719 34.47 C 34.063 34.323 34.296 33.997 34.323 33.624 C 34.35 33.251 34.167 32.895 33.849 32.699 C 32.45 31.7 31.431 30.176 31.118 28.344 C 31.045 27.863 30.637 27.505 30.151 27.494 Z  M 22.259 28.299 C 22.202 28.302 22.145 28.309 22.089 28.322 C 18.578 28.952 15.351 31.07 13.431 34.396 C 9.971 40.388 12.03 48.079 18.022 51.539 C 24.015 54.998 31.711 52.939 35.171 46.947 C 35.851 45.769 36.314 44.521 36.581 43.256 C 36.669 42.9 36.556 42.525 36.285 42.277 C 36.015 42.03 35.631 41.95 35.285 42.07 C 34.938 42.189 34.685 42.488 34.624 42.849 C 34.4 43.912 34.01 44.955 33.437 45.949 C 30.517 51.005 24.082 52.729 19.026 49.81 C 13.97 46.891 12.246 40.456 15.165 35.4 C 16.786 32.593 19.49 30.815 22.444 30.285 C 22.961 30.199 23.324 29.728 23.275 29.205 C 23.227 28.683 22.783 28.288 22.259 28.299 Z  M 20.317 33.068 C 20.127 33.067 19.94 33.121 19.778 33.222 C 15.674 35.749 14.388 41.159 16.915 45.263 C 17.102 45.568 17.438 45.75 17.795 45.74 C 18.153 45.73 18.478 45.53 18.648 45.215 C 18.818 44.901 18.808 44.519 18.62 44.215 C 16.66 41.031 17.643 36.888 20.827 34.928 C 21.214 34.697 21.399 34.238 21.28 33.804 C 21.161 33.37 20.767 33.069 20.317 33.068 Z  M 27.56 46.732 C 27.402 46.728 27.245 46.76 27.103 46.828 C 25.538 47.54 23.715 47.664 21.972 47.019 C 21.634 46.881 21.247 46.939 20.963 47.169 C 20.68 47.399 20.544 47.766 20.61 48.125 C 20.675 48.484 20.932 48.779 21.278 48.894 C 23.526 49.726 25.903 49.573 27.929 48.652 C 28.362 48.468 28.608 48.006 28.519 47.543 C 28.43 47.081 28.03 46.743 27.56 46.732 Z  M 45.364 47.367 C 44.951 47.388 44.593 47.661 44.464 48.054 C 43.797 50.055 43.212 51.219 41.954 52.476 C 41.766 52.664 41.66 52.919 41.66 53.184 C 41.66 53.45 41.766 53.705 41.954 53.892 C 43.212 55.15 43.797 56.314 44.464 58.314 C 44.6 58.723 44.982 58.999 45.413 58.999 C 45.844 58.999 46.227 58.723 46.362 58.314 C 47.029 56.314 47.614 55.15 48.872 53.892 C 49.06 53.705 49.166 53.45 49.166 53.184 C 49.166 52.919 49.06 52.664 48.872 52.476 C 47.614 51.219 47.029 50.055 46.362 48.054 C 46.222 47.627 45.814 47.346 45.364 47.367 Z  M 45.417 50.334 C 45.867 51.333 46.337 52.349 47.056 53.183 C 46.337 54.019 45.867 55.032 45.417 56.033 C 44.966 55.031 44.498 54.02 43.778 53.183 C 44.497 52.348 44.967 51.334 45.417 50.334 Z " fill="rgb(0,0,0)"/></g><text x="0" y="79" fill="#000000" font-size="5px" font-weight="bold" font-family="'Helvetica Neue', Helvetica, Arial-Unicode, Arial, Sans-serif">Created by Adi Prayoga</text><text x="0" y="84" fill="#000000" font-size="5px" font-weight="bold" font-family="'Helvetica Neue', Helvetica, Arial-Unicode, Arial, Sans-serif">from the Noun Project</text></svg>